# xmcd CD database file
# Copyright (C) 1993-1998 Ti Kan
#
# Track frame offsets:
#	150
#	13705
#	27883
#	39415
#	51918
#	64198
#	76983
#	88015
#	100013
#	113928
#	127735
#	138865
#	151268
#	165338
#	175263
#	185938
#
# Disc length: 2631 seconds
#
# Revision: 1
# Processed by: cddbd v1.4b41PL1 Copyright (c) Steve Scherf et al.
# Submitted via: CDValet v3.31 - Copyright (c) 1997 Greg Leichner
#
DISCID=c50a4510
DTITLE=Fred Astaire - My greatest songs
DYEAR=1900
DGENRE=
TTITLE0=Since i kissed my baby goodbye
TTITLE1=So near and yet so far
TTITLE2=The wedding cake walk
TTITLE3=Dream dancing
TTITLE4=I can´t tell a lie
TTITLE5=You´re easy to dance with
TTITLE6=I´ll capture your heart singing
TTITLE7=Dearly beloved
TTITLE8=Doing the "Shorty George"
TTITLE9=Wedding in the spring
TTITLE10=I´m old fashioned
TTITLE11=Yor were never lovelier
TTITLE12=This heart of mine
TTITLE13=Puttin´ on the ritz
TTITLE14=A couple of song and dance men
TTITLE15=If swing goes, I go too
EXTD=
EXTT0=
EXTT1=
EXTT2=
EXTT3=
EXTT4=
EXTT5=
EXTT6=
EXTT7=
EXTT8=
EXTT9=
EXTT10=
EXTT11=
EXTT12=
EXTT13=
EXTT14=
EXTT15=
PLAYORDER=
